# xmcd CD database file
#
# Track frame offsets:
#	150
#	15745
#	35726
#	62169
#	85912
#	105836
#	127602
#	146657
#	178153
#	198670
#	223932
#	241166
#
# Disc length: 3404 seconds
#
# Revision: 5
# Processed by: cddbd v1.5.2PL0 Copyright (c) Steve Scherf et al.
# Submitted via: CDex 1.51
#
DISCID=a70d4a0c
DTITLE=Michael Burks - Make It Rain
DYEAR=2001
DGENRE=Blues
TTITLE0=Hit The Ground Running
TTITLE1=Got A Way With Women
TTITLE2=Beggin' Business
TTITLE3=What Can A Man Do?
TTITLE4=Mean Old Lady
TTITLE5=Everybody's Got Their Hand Out
TTITLE6=Thank God For Fools
TTITLE7=Make It Rain
TTITLE8=Heartless
TTITLE9=Don't Let It Be A Dream
TTITLE10=Pack It Up
TTITLE11=Voodoo Spell
EXTD=Alligator Records, 2001, CD 4878\nProducer: Wightman Harris YEAR: 2001
EXTT0=
EXTT1=
EXTT2=
EXTT3=
EXTT4=
EXTT5=
EXTT6=
EXTT7=
EXTT8=
EXTT9=
EXTT10=
EXTT11=
PLAYORDER=
